<?xml version="1.0" encoding="UTF-8" standalone="no"?>
<svg width="56px" height="50px" viewBox="0 0 56 50" version="1.1" xmlns="http://www.w3.org/2000/svg" xmlns:xlink="http://www.w3.org/1999/xlink" xmlns:sketch="http://www.bohemiancoding.com/sketch/ns">
    <!-- Generator: Sketch 3.3 (11970) - http://www.bohemiancoding.com/sketch -->
    <title>alerts</title>
    <desc>Created with Sketch.</desc>
    <defs></defs>
    <g id="Page-1" stroke="none" stroke-width="1" fill="none" fill-rule="evenodd" sketch:type="MSPage">
        <g id="Home-Default" sketch:type="MSArtboardGroup" transform="translate(-445.000000, -1238.000000)" fill="#8E8E8E">
            <g id="alerts" sketch:type="MSLayerGroup" transform="translate(445.000000, 1238.500000)">
                <path d="M55.3470705,43.8467649 L31.3196938,2.09296994 C30.6948114,0.997298979 29.5222444,0.3168 28.2626543,0.3168 C27.0058713,0.3168 25.8344272,0.996172325 25.2044918,2.08902665 L1.06959936,44.0363245 C0.440786812,45.1280521 0.440786812,46.4836985 1.06959936,47.5754261 C1.69841191,48.6702521 2.86985601,49.3504694 4.12579679,49.3504694 L52.4124248,49.3504694 C54.3575329,49.3504694 55.9396702,47.7607607 55.9396702,45.8071428 C55.9399509,45.0784793 55.7249195,44.3768556 55.3470705,43.8467649 L55.3470705,43.8467649 Z M52.4124248,47.2971426 L4.12691967,47.2971426 C3.59860484,47.2971426 3.10425712,47.0129442 2.83981898,46.5521427 C2.57453869,46.0913412 2.57369653,45.519846 2.83981898,45.0593262 L26.9747114,3.11315508 C27.2388688,2.65460692 27.7320937,2.36815516 28.2626543,2.36815516 C28.7909691,2.36815516 29.2884047,2.65432526 29.55172,3.11315508 L53.6273805,44.9506041 C53.8031112,45.2026929 53.8985559,45.4978763 53.8985559,45.8085511 C53.8985559,46.6290368 53.2304426,47.2971426 52.4124248,47.2971426 L52.4124248,47.2971426 Z" id="Shape" sketch:type="MSShapeGroup"></path>
                <path d="M29.7865423,35.0768907 L30.3429291,16.013061 L26.1947313,16.013061 L26.7483109,35.0768907 L29.7865423,35.0768907 Z" id="Shape" sketch:type="MSShapeGroup"></path>
                <path d="M28.2678477,37.8087448 C26.8232632,37.8087448 25.7753358,38.9086407 25.7753358,40.4225819 C25.7753358,41.9407481 26.8232632,43.0403624 28.2678477,43.0403624 C29.735732,43.0403624 30.7623246,41.9658162 30.7623246,40.4225819 C30.7623246,38.883291 29.7365742,37.8087448 28.2678477,37.8087448 L28.2678477,37.8087448 Z" id="Shape" sketch:type="MSShapeGroup"></path>
            </g>
        </g>
    </g>
</svg>