<?xml version="1.0" encoding="UTF-8" standalone="no"?>
<svg width="46px" height="34px" viewBox="0 0 46 34" version="1.1" xmlns="http://www.w3.org/2000/svg" xmlns:xlink="http://www.w3.org/1999/xlink" xmlns:sketch="http://www.bohemiancoding.com/sketch/ns">
    <!-- Generator: Sketch 3.3 (11970) - http://www.bohemiancoding.com/sketch -->
    <title>list view</title>
    <desc>Created with Sketch.</desc>
    <defs></defs>
    <g id="Page-1" stroke="none" stroke-width="1" fill="none" fill-rule="evenodd" sketch:type="MSPage">
        <g id="Home-Default" sketch:type="MSArtboardGroup" transform="translate(-129.000000, -77.000000)" fill="#8E8E8E">
            <g id="list-view" sketch:type="MSLayerGroup" transform="translate(129.000000, 77.500000)">
                <path d="M43.7563459,15 L14.618755,15 C13.7252023,15 13,15.9937152 13,17.2181142 C13,18.4447314 13.7252023,19.4362285 14.618755,19.4362285 L43.7563459,19.4362285 C44.6498987,19.4362285 45.375101,18.4447314 45.375101,17.2181142 C45.375101,15.9937152 44.6498987,15 43.7563459,15 L43.7563459,15 Z M43.7563459,28.4898279 L14.618755,28.4898279 C13.7252023,28.4898279 13,29.483543 13,30.7079421 C13,31.9345593 13.7252023,32.9260563 14.618755,32.9260563 L43.7563459,32.9260563 C44.6498987,32.9260563 45.375101,31.9345593 45.375101,30.7079421 C45.375101,29.483543 44.6498987,28.4898279 43.7563459,28.4898279 L43.7563459,28.4898279 Z M14.618755,5.43622848 L43.7563459,5.43622848 C44.6498987,5.43622848 45.375101,4.44473142 45.375101,3.21811424 C45.375101,1.99371518 44.6498987,1 43.7563459,1 L14.618755,1 C13.7252023,1 13,1.99371518 13,3.21811424 C13,4.44473142 13.7252023,5.43622848 14.618755,5.43622848 L14.618755,5.43622848 Z" id="icon-nav-copy" sketch:type="MSShapeGroup"></path>
                <rect id="Rectangle-490" sketch:type="MSShapeGroup" x="0" y="0" width="7" height="7"></rect>
                <rect id="Rectangle-490-Copy" sketch:type="MSShapeGroup" x="0" y="13" width="7" height="7"></rect>
                <rect id="Rectangle-490-Copy-2" sketch:type="MSShapeGroup" x="0" y="26" width="7" height="7"></rect>
            </g>
        </g>
    </g>
</svg>