<?xml version="1.0" encoding="UTF-8" standalone="no"?>
<svg width="46px" height="46px" viewBox="0 0 46 46" version="1.1" xmlns="http://www.w3.org/2000/svg" xmlns:xlink="http://www.w3.org/1999/xlink" xmlns:sketch="http://www.bohemiancoding.com/sketch/ns">
    <!-- Generator: Sketch 3.3 (11970) - http://www.bohemiancoding.com/sketch -->
    <title>profile7</title>
    <desc>Created with Sketch.</desc>
    <defs></defs>
    <g id="Page-1" stroke="none" stroke-width="1" fill="none" fill-rule="evenodd" sketch:type="MSPage">
        <g id="Home-Default" sketch:type="MSArtboardGroup" transform="translate(-29.000000, -71.000000)" fill="#8E8E8E">
            <g id="profile7" sketch:type="MSLayerGroup" transform="translate(29.000000, 71.000000)">
                <g id="User" sketch:type="MSShapeGroup">
                    <path d="M23,31.625 C30.1343125,31.625 35.9375,24.5295 35.9375,15.8125 C35.9375,7.0955 30.132875,0 23,0 C19.4824375,0 16.194875,1.687625 13.745375,4.7509375 C11.3691875,7.719375 10.0625,11.6495 10.0625,15.8139375 C10.0625,24.5295 15.8656875,31.625 23,31.625 L23,31.625 Z M23,2.8764375 C28.5473125,2.8764375 33.0625,8.679625 33.0625,15.8139375 C33.0625,22.9468125 28.5473125,28.7514375 23,28.7514375 C17.4526875,28.7514375 12.9375,22.9468125 12.9360625,15.8139375 C12.9360625,8.679625 17.45125,2.8764375 23,2.8764375 L23,2.8764375 Z M33.0625,28.75 C32.2675625,28.75 31.625,29.3925625 31.625,30.1875 C31.625,30.9824375 32.2675625,31.625 33.0625,31.625 C38.6098125,31.625 43.125,36.1401875 43.125,41.6875 C43.125,42.4795625 42.4795625,43.125 41.6875,43.125 L4.3125,43.125 C3.5204375,43.125 2.875,42.4795625 2.875,41.6875 C2.875,36.1401875 7.3901875,31.625 12.9375,31.625 C13.7324375,31.625 14.375,30.9824375 14.375,30.1875 C14.375,29.3925625 13.7324375,28.75 12.9375,28.75 C5.8031875,28.75 0,34.5531875 0,41.6875 C0,44.065125 1.934875,46 4.3125,46 L41.6875,46 C44.065125,46 46,44.065125 46,41.6875 C46,34.554625 40.1968125,28.75 33.0625,28.75 L33.0625,28.75 Z" id="Shape"></path>
                </g>
            </g>
        </g>
    </g>
</svg>