<?xml version="1.0" encoding="UTF-8" standalone="no"?>
<svg width="36px" height="47px" viewBox="0 0 36 47" version="1.1" xmlns="http://www.w3.org/2000/svg" xmlns:xlink="http://www.w3.org/1999/xlink" xmlns:sketch="http://www.bohemiancoding.com/sketch/ns">
    <!-- Generator: Sketch 3.3 (11970) - http://www.bohemiancoding.com/sketch -->
    <title>mapmynewslogo</title>
    <desc>Created with Sketch.</desc>
    <defs></defs>
    <g id="Page-1" stroke="none" stroke-width="1" fill="none" fill-rule="evenodd" sketch:type="MSPage">
        <g id="Home-Default" sketch:type="MSArtboardGroup" transform="translate(-349.000000, -55.000000)">
            <g id="mapmynewslogo" sketch:type="MSLayerGroup" transform="translate(349.000000, 55.000000)">
                <path d="M18,22.0312458 C15.5145,22.0312458 13.5,20.058715 13.5,17.6249967 C13.5,15.1912784 15.5145,13.2187475 18,13.2187475 C20.4855,13.2187475 22.5,15.1912784 22.5,17.6249967 C22.5,20.058715 20.4855,22.0312458 18,22.0312458 L18,22.0312458 Z M18,10.2812481 C13.8585,10.2812481 10.5,13.5683099 10.5,17.6249967 C10.5,21.6816834 13.8585,24.9687453 18,24.9687453 C22.1415,24.9687453 25.5,21.6816834 25.5,17.6249967 C25.5,13.5683099 22.1415,10.2812481 18,10.2812481 L18,10.2812481 Z M18,42.5937419 C15.5055,42.6069607 3,23.7658393 3,17.6249967 C3,9.5145607 9.7155,2.93749944 18,2.93749944 C26.2845,2.93749944 33,9.5145607 33,17.6249967 C33,23.6835893 20.4555,42.6069607 18,42.5937419 L18,42.5937419 Z M18,0 C8.0595,0 0,7.89159226 0,17.6249967 C0,24.9951828 15.0075,47.0161474 18,46.9999911 C20.946,47.0161474 36,24.8953078 36,17.6249967 C36,7.89159226 27.9405,0 18,0 L18,0 Z" id="Fill-162-Copy" fill="#454545" sketch:type="MSShapeGroup"></path>
                <circle id="Oval-217" fill="#4990E2" sketch:type="MSShapeGroup" cx="17.5" cy="17.5" r="8.5"></circle>
            </g>
        </g>
    </g>
</svg>