<?xml version="1.0" encoding="UTF-8" standalone="no"?>
<svg width="53px" height="41px" viewBox="0 0 53 41" version="1.1" xmlns="http://www.w3.org/2000/svg" xmlns:xlink="http://www.w3.org/1999/xlink" xmlns:sketch="http://www.bohemiancoding.com/sketch/ns">
    <!-- Generator: Sketch 3.3 (11970) - http://www.bohemiancoding.com/sketch -->
    <title>newspaper9</title>
    <desc>Created with Sketch.</desc>
    <defs></defs>
    <g id="Page-1" stroke="none" stroke-width="1" fill="none" fill-rule="evenodd" sketch:type="MSPage">
        <g id="Home-Default" sketch:type="MSArtboardGroup" transform="translate(-234.000000, -1243.000000)" fill="#8E8E8E">
            <g id="newspaper9" sketch:type="MSLayerGroup" transform="translate(234.000000, 1243.500000)">
                <path d="M46.375,6.66666667 L46.375,0 L0,0 L0,36.6666667 C0,38.5076042 1.48306836,40 3.3125,40 L48.03125,40 C50.7756562,40 53,37.7615625 53,35 L53,6.66666667 L46.375,6.66666667 L46.375,6.66666667 Z M43.0625,36.6666667 L3.3125,36.6666667 L3.3125,3.33333333 L43.0625,3.33333333 L43.0625,36.6666667 L43.0625,36.6666667 Z M6.625,10 L39.75,10 L39.75,13.3333333 L6.625,13.3333333 L6.625,10 L6.625,10 Z M26.5,16.6666667 L39.75,16.6666667 L39.75,20 L26.5,20 L26.5,16.6666667 L26.5,16.6666667 Z M26.5,23.3333333 L39.75,23.3333333 L39.75,26.6666667 L26.5,26.6666667 L26.5,23.3333333 L26.5,23.3333333 Z M26.5,30 L36.4375,30 L36.4375,33.3333333 L26.5,33.3333333 L26.5,30 L26.5,30 Z M6.625,16.6666667 L23.1875,16.6666667 L23.1875,33.3333333 L6.625,33.3333333 L6.625,16.6666667 L6.625,16.6666667 Z" id="Shape" sketch:type="MSShapeGroup"></path>
            </g>
        </g>
    </g>
</svg>