<?xml version="1.0" encoding="UTF-8" standalone="no"?>
<svg width="43px" height="44px" viewBox="0 0 43 44" version="1.1" xmlns="http://www.w3.org/2000/svg" xmlns:xlink="http://www.w3.org/1999/xlink" xmlns:sketch="http://www.bohemiancoding.com/sketch/ns">
    <!-- Generator: Sketch 3.3 (11970) - http://www.bohemiancoding.com/sketch -->
    <title>settings</title>
    <desc>Created with Sketch.</desc>
    <defs></defs>
    <g id="Page-1" stroke="none" stroke-width="1" fill="none" fill-rule="evenodd" sketch:type="MSPage">
        <g id="Home-Default" sketch:type="MSArtboardGroup" transform="translate(-679.000000, -72.000000)" fill="#8E8E8E">
            <g id="settings" sketch:type="MSLayerGroup" transform="translate(679.000000, 72.000000)">
                <path d="M39.4458884,30.7920667 L38.0239654,33.2746 C37.6312165,33.9611667 36.762582,34.1948 36.0817217,33.7992 L32.1327318,31.5001333 C30.1288523,33.7805667 27.4183115,35.4145667 24.3422562,36.0452333 L24.3422562,39.2 C24.3422562,39.9926333 23.7072643,40.6333333 22.9217665,40.6333333 L20.0779204,40.6333333 C19.2924226,40.6333333 18.6574308,39.9926333 18.6574308,39.2 L18.6574308,36.0452333 C15.5813755,35.4145667 12.8708347,33.7805667 10.8669552,31.5001333 L6.91796527,33.7992 C6.23710494,34.1948 5.3684705,33.9611667 4.97572159,33.2746 L3.55379854,30.7920667 C3.16104963,30.1069333 3.39469223,29.2297333 4.07411917,28.8355667 L8.03887638,26.5250333 C7.56729102,25.1003 7.28491315,23.5852667 7.28491315,22 C7.28491315,20.4147333 7.56729102,18.9011333 8.03887638,17.4749667 L4.07411917,15.1658667 C3.39469223,14.7702667 3.16104963,13.8945 3.55379854,13.2079333 L4.97572159,10.7254 C5.3684705,10.0402667 6.23710494,9.8052 6.91796527,10.2008 L10.8669552,12.4998667 C12.8708347,10.2194333 15.5813755,8.58543333 18.6574308,7.95476667 L18.6574308,4.8 C18.6574308,4.00736667 19.2924226,3.36666667 20.0779204,3.36666667 L22.9217665,3.36666667 C23.7072643,3.36666667 24.3422562,4.00736667 24.3422562,4.8 L24.3422562,7.95476667 C27.4183115,8.58543333 30.1288523,10.2194333 32.1327318,12.4998667 L36.0817217,10.2008 C36.762582,9.8052 37.6312165,10.0402667 38.0239654,10.7254 L39.4458884,13.2079333 C39.8386373,13.8945 39.6049947,14.7702667 38.9255678,15.1658667 L34.9608106,17.4749667 C35.4323959,18.9011333 35.7147738,20.4147333 35.7147738,22 C35.7147738,23.5852667 35.4323959,25.1003 34.9608106,26.5250333 L38.9255678,28.8355667 C39.6049947,29.2297333 39.8386373,30.1069333 39.4458884,30.7920667 L39.4458884,30.7920667 Z M41.578773,27.0682667 L38.2490076,25.1304 C38.4353484,24.1127333 38.5586199,23.0735667 38.5586199,22 C38.5586199,20.9278667 38.4353484,19.8872667 38.2490076,18.8696 L41.578773,16.9317333 C42.9390603,16.1405333 43.4034787,14.3861333 42.6179809,13.0158667 L39.7755682,8.0508 C38.9915037,6.68053333 37.2513681,6.20896667 35.8925142,7.0016 L32.5283475,8.9581 C30.9573518,7.61076667 29.1713477,6.50853333 27.1861023,5.79903333 L27.1861023,3.36666667 C27.1861023,1.78426667 25.9132518,0.5 24.3422562,0.5 L18.6574308,0.5 C17.0864351,0.5 15.8135847,1.78426667 15.8135847,3.36666667 L15.8135847,5.79903333 C13.8283393,6.50853333 12.0423351,7.61076667 10.4713395,8.9581 L7.10717277,7.0016 C5.74831889,6.20896667 4.00818322,6.68053333 3.2241188,8.0508 L0.381706091,13.0158667 C-0.403791723,14.3861333 0.0620600827,16.1405333 1.42091396,16.9317333 L4.75067933,18.8696 C4.56433861,19.8872667 4.44106706,20.9278667 4.44106706,22 C4.44106706,23.0735667 4.56433861,24.1127333 4.75067933,25.1304 L1.42091396,27.0682667 C0.0620600827,27.8594667 -0.403791723,29.6138667 0.381706091,30.9841333 L3.2241188,35.9492 C4.00818322,37.3194667 5.74831889,37.7910333 7.10717277,36.9984 L10.4713395,35.0419 C12.0423351,36.3892333 13.8283393,37.4929 15.8135847,38.2009667 L15.8135847,40.6333333 C15.8135847,42.2157333 17.0864351,43.5 18.6574308,43.5 L24.3422562,43.5 C25.9132518,43.5 27.1861023,42.2157333 27.1861023,40.6333333 L27.1861023,38.2009667 C29.1713477,37.4929 30.9573518,36.3892333 32.5283475,35.0419 L35.8925142,36.9984 C37.2513681,37.7910333 38.9915037,37.3194667 39.7755682,35.9492 L42.6179809,30.9841333 C43.4034787,29.6138667 42.9390603,27.8594667 41.578773,27.0682667 L41.578773,27.0682667 Z M21.4998435,26.3 C19.1447834,26.3 17.2355077,24.3750333 17.2355077,22 C17.2355077,19.6264 19.1447834,17.7 21.4998435,17.7 C23.8549035,17.7 25.7641792,19.6264 25.7641792,22 C25.7641792,24.3750333 23.8549035,26.3 21.4998435,26.3 L21.4998435,26.3 Z M21.4998435,14.8333333 C17.5737878,14.8333333 14.393095,18.0411333 14.393095,22 C14.393095,25.9588667 17.5737878,29.1666667 21.4998435,29.1666667 C25.4258992,29.1666667 28.6080253,25.9588667 28.6080253,22 C28.6080253,18.0411333 25.4258992,14.8333333 21.4998435,14.8333333 L21.4998435,14.8333333 Z" id="Fill-172" sketch:type="MSShapeGroup"></path>
            </g>
        </g>
    </g>
</svg>