<?xml version="1.0" encoding="UTF-8" standalone="no"?>
<svg width="53px" height="51px" viewBox="0 0 53 51" version="1.1" xmlns="http://www.w3.org/2000/svg" xmlns:xlink="http://www.w3.org/1999/xlink" xmlns:sketch="http://www.bohemiancoding.com/sketch/ns">
    <!-- Generator: Sketch 3.3 (11970) - http://www.bohemiancoding.com/sketch -->
    <title>timetable</title>
    <desc>Created with Sketch.</desc>
    <defs></defs>
    <g id="Page-1" stroke="none" stroke-width="1" fill="none" fill-rule="evenodd" sketch:type="MSPage">
        <g id="Home-Default" sketch:type="MSArtboardGroup" transform="translate(-648.000000, -1238.000000)" fill="#8E8E8E">
            <g id="timetable" sketch:type="MSLayerGroup" transform="translate(648.000000, 1238.000000)">
                <g id="Group" sketch:type="MSShapeGroup">
                    <path d="M51.8714118,5.20243515 C51.1217908,4.43317065 50.1953301,4.03648464 49.0990441,4.03648464 L37.6224657,4.03648464 L37.6224657,1.83304096 C37.6224657,0.828793515 36.848683,0.0511740614 35.8493905,0.0511740614 C34.850098,0.0511740614 34.0763154,0.828793515 34.0763154,1.83304096 L34.0763154,4.03648464 L18.9566797,4.03648464 L18.9566797,1.83304096 C18.9566797,0.828793515 18.1505948,0.0511740614 17.1513023,0.0511740614 C16.151317,0.0511740614 15.3776209,0.828793515 15.3776209,1.83304096 L15.3776209,4.03648464 L3.90095588,4.03648464 C2.83697222,4.03648464 1.89405719,4.41733106 1.12858824,5.20243515 C0.37896732,5.97248294 0,6.88752389 0,7.95678328 L0,47.0285273 C0,48.0976997 0.37896732,49.0128276 1.12858824,49.7827884 C1.89405719,50.5678925 2.83697222,50.9487389 3.90095588,50.9487389 L49.0990441,50.9487389 C50.1953301,50.9487389 51.1382451,50.5678925 51.8714118,49.8145546 C52.6210327,49.0452031 53,48.0976126 53,47.0284403 L53,7.95678328 C53,6.88752389 52.6051846,5.95586007 51.8714118,5.20243515 L51.8714118,5.20243515 Z M49.4539363,47.0285273 C49.4539363,47.1583771 49.2600359,47.3527167 49.0990441,47.3527167 L3.90095588,47.3527167 C3.74005065,47.3527167 3.54675654,47.1584642 3.54675654,47.0285273 L3.54675654,20.6887679 L49.4539363,20.6887679 L49.4539363,47.0285273 L49.4539363,47.0285273 Z M49.4539363,17.1251212 L3.54675654,17.1251212 L3.54675654,7.95678328 C3.54675654,7.73006826 3.67535948,7.63259386 3.90095588,7.63259386 L15.3775343,7.63259386 L15.3775343,8.41021331 C15.3775343,9.41446075 16.151317,10.2245427 17.1512157,10.2245427 C18.1505948,10.2245427 18.9565931,9.41446075 18.9565931,8.41021331 L18.9565931,7.63259386 L34.0762288,7.63259386 L34.0762288,8.41021331 C34.0762288,9.41446075 34.8500114,10.2245427 35.8493039,10.2245427 C36.8485964,10.2245427 37.6223791,9.41446075 37.6223791,8.41021331 L37.6223791,7.63259386 L49.0989575,7.63259386 C49.3244673,7.63259386 49.4538497,7.73006826 49.4538497,7.95678328 L49.4538497,17.1251212 L49.4539363,17.1251212 Z" id="Shape"></path>
                    <path d="M19.0205915,31.3154795 L40.3947467,31.3154795 C41.3940392,31.3154795 42.1678219,30.5053976 42.1678219,29.5011502 C42.1678219,28.4968157 41.3940392,27.7192833 40.3947467,27.7192833 L19.0205915,27.7192833 C18.021299,27.7192833 17.2152141,28.4968157 17.2152141,29.5011502 C17.2153007,30.5054846 18.021299,31.3154795 19.0205915,31.3154795 L19.0205915,31.3154795 Z" id="Shape"></path>
                    <path d="M19.0205915,39.9336962 L40.3947467,39.9336962 C41.3940392,39.9336962 42.1678219,39.1560768 42.1678219,38.1518294 C42.1678219,37.1475819 41.3940392,36.3375 40.3947467,36.3375 L19.0205915,36.3375 C18.021299,36.3375 17.2152141,37.1475819 17.2152141,38.1518294 C17.2152141,39.1560768 18.021299,39.9336962 19.0205915,39.9336962 L19.0205915,39.9336962 Z" id="Shape"></path>
                    <rect id="Rectangle-path" x="10.8321781" y="27.7193703" width="3.54606373" height="3.59610922"></rect>
                    <rect id="Rectangle-path" x="10.8321781" y="36.3375" width="3.54606373" height="3.59610922"></rect>
                </g>
            </g>
        </g>
    </g>
</svg>